#N canvas 492 0 1418 978 10;
#X obj 307 233 vd~ DR1;
#X obj 306 194 sig~;
#X obj 306 157 r radomR;
#X obj 544 246 s randomR;
#X obj 544 180 metro 500;
#X obj 370 234 vd~ DR1;
#X obj 369 209 sig~;
#X obj 369 158 r radomR;
#X obj 369 183 * 2;
#X obj 308 263 *~ 0.1;
#X obj 370 264 *~ 0.01;
#X obj 183 122 delwrite~ DL1 4000;
#X obj 300 122 delwrite~ DR1 4000;
#X obj 544 211 random 2000;
#X obj 183 87 inlet~;
#X obj 300 87 inlet~;
#X obj 184 193 sig~;
#X obj 247 208 sig~;
#X obj 247 182 * 2;
#X obj 186 262 *~ 0.1;
#X obj 248 263 *~ 0.01;
#X obj 184 156 r radomL;
#X obj 247 157 r radoL;
#X obj 185 232 vd~ DL1;
#X obj 248 233 vd~ DL1;
#X obj 544 150 loadbang;
#X obj 467 179 metro 500;
#X obj 467 210 random 2000;
#X obj 467 149 loadbang;
#X obj 467 245 s randomL;
#X obj 249 292 outlet~;
#X obj 307 292 outlet~;
#X connect 0 0 9 0;
#X connect 1 0 0 0;
#X connect 2 0 1 0;
#X connect 4 0 13 0;
#X connect 5 0 10 0;
#X connect 6 0 5 0;
#X connect 7 0 8 0;
#X connect 8 0 6 0;
#X connect 9 0 31 0;
#X connect 10 0 31 0;
#X connect 13 0 3 0;
#X connect 14 0 11 0;
#X connect 14 0 30 0;
#X connect 15 0 12 0;
#X connect 15 0 31 0;
#X connect 16 0 23 0;
#X connect 17 0 24 0;
#X connect 18 0 17 0;
#X connect 19 0 30 0;
#X connect 20 0 30 0;
#X connect 21 0 16 0;
#X connect 22 0 18 0;
#X connect 23 0 19 0;
#X connect 24 0 20 0;
#X connect 25 0 4 0;
#X connect 26 0 27 0;
#X connect 27 0 29 0;
#X connect 28 0 26 0;
