#N canvas 0 0 1920 988 10;
#X declare -lib mrpeach;
#X obj 468 454 FmOsc;
#X obj 462 801 MyReverb;
#X obj 539 754 hsl 128 15 0 1 0 0 empty empty empty -2 -8 0 10 -262144
-1 -1 3300 1;
#X obj 537 778 hsl 128 15 0 1 0 0 empty empty empty -2 -8 0 10 -262144
-1 -1 3200 1;
#X obj 538 803 hsl 128 15 0 1 0 0 empty empty empty -2 -8 0 10 -262144
-1 -1 1900 1;
#X obj 469 916 dac~;
#X obj 468 665 *~;
#X obj 187 482 FmOsc;
#X obj 690 649 EnvelopeASR;
#X obj 187 459 * 2.008;
#X obj 463 863 *~;
#X obj 493 861 *~;
#X obj 122 619 NoiseOsc;
#X obj 515 429 r FMratio;
#X obj 575 428 r FMdepth;
#X obj 711 621 r envAtt;
#X obj 560 128 cnv 15 180 130 empty empty Transition_Matrices 20 12
0 14 -204786 -66577 0;
#X obj 604 158 coll PitchSTM;
#C restore;
#X obj 604 180 coll LengthSTM;
#C restore;
#X obj 604 203 coll RestSTM;
#C restore;
#X obj 604 226 coll VelocitySTM;
#C restore;
#X obj 1141 129 cnv 15 275 220 empty empty Beat_Slicer_(Optional) 20
12 0 14 -260097 -66577 0;
#X obj 1282 176 hsl 128 15 0 1 0 0 empty empty empty -2 -8 0 10 -262144
-1 -1 4600 1;
#X obj 1280 199 hsl 128 15 0 1 0 0 empty empty empty -2 -8 0 10 -262144
-1 -1 2700 1;
#X obj 1282 226 hsl 128 15 0 1 0 0 empty empty empty -2 -8 0 10 -262144
-1 -1 3600 1;
#X obj 1155 212 BeatSlicerSub;
#X obj 1172 332 dac~;
#X obj 1155 258 MyReverb;
#X floatatom 1230 185 5 0 0 0 - - -;
#X obj 1155 185 r tog;
#X msg 1196 186 0;
#X obj 40 128 cnv 15 375 125 empty empty General_Control 20 12 0 14
-232576 -66577 0;
#X obj 52 155 tgl 15 0 empty empty empty 17 7 0 10 -262144 -1 -1 1
1;
#X obj 52 176 s tog;
#X obj 90 155 bng 15 250 50 0 empty empty empty 17 7 0 10 -262144 -1
-1;
#X obj 90 176 s newSTM;
#X obj 193 161 s FMratio;
#X obj 256 160 s FMdepth;
#X floatatom 192 139 5 0 0 0 - - -;
#X floatatom 255 138 5 0 0 0 - - -;
#X obj 339 162 s envAtt;
#X floatatom 339 137 5 0 0 0 - - -;
#X obj 40 247 cnv 15 700 150 empty empty Markov_Sequencers 20 12 0
14 -204786 -66577 0;
#X obj 426 299 MarkovPitchSequences;
#X obj 594 297 MarkovLengthSequences;
#X obj 269 299 MarkovRestSequences;
#X obj 94 299 MarkovVelocitySequences;
#X obj 594 272 r tog;
#X obj 94 275 r tog;
#X obj 269 276 r tog;
#X obj 129 275 r tempo;
#X obj 304 276 r tempo;
#X obj 461 274 r tempo;
#X obj 628 272 r tempo;
#X obj 176 275 r newSTM;
#X obj 351 276 r newSTM;
#X obj 508 274 r newSTM;
#X obj 675 272 r newSTM;
#X obj 426 274 r tog;
#X obj 401 128 cnv 15 175 125 empty empty MIDI_Analysis 20 12 0 14
-204786 -66577 0;
#X obj 430 168 bng 15 250 50 0 empty empty empty 17 7 0 10 -262144
-1 -1;
#X obj 517 168 bng 15 250 50 0 empty empty empty 17 7 0 10 -262144
-1 -1;
#N canvas 954 247 450 313 loadMidiFile 0;
#X obj 30 47 inlet;
#X obj 79 48 inlet;
#X msg 30 78 read;
#X obj 30 110 seq;
#X msg 79 78 start 65536;
#X obj 34 166 unpack;
#X obj 34 192 stripnote;
#X floatatom 38 215 5 0 0 0 - - -;
#X obj 39 245 outlet;
#X obj 125 115 bng 15 250 50 0 empty empty empty 17 7 0 10 -262144
-1 -1;
#X obj 127 136 outlet;
#X obj 29 138 midiparse;
#X floatatom 87 217 5 0 0 0 - - -;
#X obj 88 247 outlet;
#X connect 0 0 2 0;
#X connect 1 0 4 0;
#X connect 2 0 3 0;
#X connect 3 0 11 0;
#X connect 3 1 9 0;
#X connect 4 0 3 0;
#X connect 5 0 6 0;
#X connect 5 1 6 1;
#X connect 6 0 7 0;
#X connect 6 1 12 0;
#X connect 7 0 8 0;
#X connect 9 0 10 0;
#X connect 11 0 5 0;
#X connect 12 0 13 0;
#X restore 430 191 pd loadMidiFile;
#N canvas 536 417 450 300 MidiAnalysis 0;
#X obj 30 31 inlet;
#N canvas 1425 608 450 318 pair 0;
#X obj 32 39 inlet;
#X floatatom 32 65 5 0 0 0 - - -;
#X obj 33 87 t f b f;
#X obj 36 115 f;
#X obj 37 144 pack;
#X obj 40 171 outlet;
#X connect 0 0 1 0;
#X connect 1 0 2 0;
#X connect 2 0 3 1;
#X connect 2 1 3 0;
#X connect 2 2 4 1;
#X connect 3 0 4 0;
#X connect 4 0 5 0;
#X restore 29 66 pd pair;
#X msg 27 95 merge \$1 \$2;
#X obj 160 34 inlet;
#N canvas 1425 608 450 318 pair 0;
#X obj 32 39 inlet;
#X floatatom 32 65 5 0 0 0 - - -;
#X obj 33 87 t f b f;
#X obj 36 115 f;
#X obj 37 144 pack;
#X obj 40 171 outlet;
#X connect 0 0 1 0;
#X connect 1 0 2 0;
#X connect 2 0 3 1;
#X connect 2 1 3 0;
#X connect 2 2 4 1;
#X connect 3 0 4 0;
#X connect 4 0 5 0;
#X restore 159 69 pd pair;
#X msg 157 98 merge \$1 \$2;
#X obj 160 128 coll VelocitySTM;
#C restore;
#X obj 30 125 coll PitchSTM;
#C restore;
#X connect 0 0 1 0;
#X connect 1 0 2 0;
#X connect 2 0 7 0;
#X connect 3 0 4 0;
#X connect 4 0 5 0;
#X connect 5 0 6 0;
#X restore 430 221 pd MidiAnalysis;
#X obj 542 208 bng 15 250 50 0 empty empty empty 17 7 0 10 -262144
-1 -1;
#X obj 740 128 cnv 15 200 270 empty empty Random_Noise 20 12 0 14 -162280
-66577 0;
#X obj 758 200 NoiseOsc;
#X obj 856 192 metro 5000;
#X obj 759 249 spigot~;
#X obj 900 142 r tog;
#X obj 809 223 random 4;
#X obj 94 320 / 100;
#X obj 269 368 s tempo;
#X obj 395 350 t f b;
#X obj 94 365 s velocity;
#X obj 395 384 mtof;
#X obj 476 378 s noteBang;
#X obj 690 599 r noteBang;
#X obj 233 433 r FMratio;
#X obj 297 432 r FMdepth;
#X obj 594 366 s noteLength;
#X obj 769 621 r noteLength;
#X obj 561 837 r velocity;
#X obj 543 326 mtof;
#X obj 543 349 s freq2;
#X obj 395 408 s freq1;
#X obj 187 433 r freq1;
#X obj 468 429 r freq1;
#X obj 684 527 FmOsc;
#X obj 731 428 r FMratio;
#X obj 791 427 r FMdepth;
#X obj 684 428 r freq1;
#X obj 684 461 ftom;
#X obj 684 504 mtof;
#X obj 683 556 *~;
#X obj 724 450 r tog;
#X obj 724 496 random 5;
#X obj 724 473 metro 500;
#X msg 771 539 0;
#X msg 724 538 1;
#X obj 775 451 r tempo;
#X obj 724 518 select 0 1 2 3 4;
#X obj 684 483 + 5;
#X obj 940 399 cnv 15 200 300 empty empty Secondry_Voice 20 12 0 14
-4032 -66577 0;
#X obj 970 654 dac~;
#X obj 970 591 FMOsc;
#X obj 968 481 ftom;
#X obj 1009 563 r FMratio;
#X obj 1074 563 r FMdepth;
#X obj 968 532 mtof~;
#X obj 969 558 +~;
#X obj 1032 534 LFO;
#X obj 968 452 r freq1;
#X obj 773 294 line~;
#X obj 759 319 *~;
#X obj 870 214 delay 4000;
#X msg 870 261 0 1000;
#X msg 812 260 1 1000;
#X text 860 130 2 \, 4;
#X text 1092 400 2 \, 1;
#X obj 1078 603 vsl 15 60 0 1 0 0 empty empty empty 0 -9 0 10 -262144
-1 -1 3500 1;
#X obj 759 342 *~;
#X obj 890 306 vsl 15 60 0 1 0 0 empty empty empty 0 -9 0 10 -262144
-1 -1 3000 1;
#X obj 758 223 *~ 0.5;
#X obj 228 573 vsl 15 60 0 1 0 0 empty empty empty 0 -9 0 10 -262144
-1 -1 1300 1;
#X text 979 682 Make a send;
#X obj 759 369 s~ noiz1;
#X obj 394 804 r~ noiz1;
#X obj 392 836 r~ noiz2;
#X obj 940 128 cnv 15 200 270 empty empty Random_FM 20 12 0 14 -257985
-66577 0;
#X obj 953 153 r tog;
#X obj 953 192 metro 20;
#X obj 953 217 counter 1500 0;
#X obj 953 257 FmOsc;
#X obj 953 282 spigot~;
#X obj 1048 170 metro 10000;
#X obj 1016 192 delay 5000;
#X obj 1086 192 random 4;
#X floatatom 997 257 5 0 0 0 - - -;
#X floatatom 1037 256 5 0 0 0 - - -;
#X text 1013 235 4 \, 12;
#X obj 1094 248 line~;
#X msg 1048 217 1 5000;
#X msg 1094 217 0 5000;
#X obj 952 313 *~;
#X obj 952 354 *~;
#X obj 951 378 s~ noiz2;
#X obj 1053 303 vsl 15 60 0 1 0 0 empty empty empty 0 -9 0 10 -262144
-1 -1 1400 1;
#X obj 952 334 *~ 0.5;
#X msg 989 170 updown;
#X obj 123 651 *~ 2;
#X obj 124 675 *~;
#X obj 50 45 s mainVol;
#X obj 104 75 s secVol;
#X obj 155 46 s beatVol;
#X obj 208 80 s noiseVol;
#X obj 255 53 s verbSize1;
#X obj 311 79 s verbSize 2;
#X obj 364 40 * 20;
#X obj 416 81 * 20;
#X obj 469 39 * 20;
#X obj 521 84 * 20;
#X obj 469 59 s noiseFreq;
#X obj 521 104 s noiseDepth;
#X obj 573 39 * 10;
#X obj 625 87 * 5;
#X obj 573 62 s LFORate;
#X obj 625 109 s LFODepth;
#X obj 467 696 *~ 1;
#X obj 574 675 vsl 15 60 0 1 0 0 empty empty empty 0 -9 0 10 -262144
-1 -1 3500 1;
#X obj 504 676 r mainVol;
#X obj 1016 616 r secVol;
#X obj 1206 305 *~;
#X obj 1155 305 *~;
#X obj 1388 256 vsl 15 60 0 1 0 0 empty empty empty 0 -9 0 10 -262144
-1 -1 2000 1;
#X obj 1302 280 r beatVol;
#X obj 807 317 r noiseVol;
#X obj 201 654 r noiseVol;
#X obj 479 733 r verbSize1;
#X obj 1219 259 r verbSize2;
#X floatatom 122 202 5 0 0 0 - - -;
#X floatatom 51 203 5 0 0 0 - - -;
#X floatatom 264 200 5 0 0 0 - - -;
#X floatatom 326 200 5 0 0 0 - - -;
#X obj 50 222 s noiseFreq;
#X obj 123 223 s noiseDepth;
#X obj 264 223 s LFORate;
#X obj 326 223 s LFODepth;
#X obj 54 594 r noiseFreq;
#X obj 131 595 r noiseDepth;
#X obj 746 157 r noiseFreq;
#X obj 821 158 r noiseDepth;
#X obj 1031 507 r LFORate;
#X obj 1070 531 r LFODepth;
#X floatatom 51 76 5 0 0 0 - - -;
#X floatatom 104 100 5 0 0 0 - - -;
#X floatatom 165 74 5 0 0 0 - - -;
#X floatatom 208 106 5 0 0 0 - - -;
#X floatatom 273 105 5 0 0 0 - - -;
#X floatatom 319 105 5 0 0 0 - - -;
#X floatatom 371 105 5 0 0 0 - - -;
#X floatatom 452 82 5 0 0 0 - - -;
#X floatatom 490 80 5 0 0 0 - - -;
#X floatatom 559 85 5 0 0 0 - - -;
#X floatatom 638 65 5 0 0 0 - - -;
#X floatatom 661 88 5 0 0 0 - - -;
#X obj 365 63 s FMratio;
#X obj 1154 282 *~ 1;
#X obj 1200 282 *~ 1;
#X floatatom 1015 725 5 0 0 0 - - -;
#X obj 969 615 *~;
#X floatatom 1180 584 5 0 0 0 - - -;
#X obj 416 107 s FMdepth;
#X floatatom 443 52 5 0 0 0 - - -;
#X text 1163 631 if lower than 3 do this amplitude else another;
#X obj 679 10 * 3;
#X obj 736 10 * 5;
#X obj 396 316 +;
#X obj 704 42 +;
#X obj 449 327 r pitchControl;
#X floatatom 840 35 5 0 0 0 - - -;
#N canvas -9 -9 1920 988 OSCh 0;
#X obj 236 285 outlet;
#X obj 281 286 outlet;
#X obj 326 286 outlet;
#X obj 369 286 outlet;
#X obj 414 287 outlet;
#X obj 459 287 outlet;
#X obj 507 287 outlet;
#X obj 552 287 outlet;
#X obj 595 287 outlet;
#X obj 640 288 outlet;
#X obj 687 288 outlet;
#X obj 732 289 outlet;
#X obj 777 289 outlet;
#X obj 820 289 outlet;
#X obj 865 290 outlet;
#X obj 354 234 unpack f f f f f f f f f f f f f f f;
#X obj 34 27 import mrpeach;
#X obj 353 114 udpreceive 12000;
#X obj 354 146 unpackOSC;
#X obj 354 172 routeOSC /wek;
#X obj 354 203 routeOSC /outputs;
#X connect 15 0 0 0;
#X connect 15 1 1 0;
#X connect 15 2 2 0;
#X connect 15 3 3 0;
#X connect 15 4 4 0;
#X connect 15 5 5 0;
#X connect 15 6 6 0;
#X connect 15 7 7 0;
#X connect 15 8 8 0;
#X connect 15 9 9 0;
#X connect 15 10 10 0;
#X connect 15 11 11 0;
#X connect 15 12 12 0;
#X connect 15 13 13 0;
#X connect 15 14 14 0;
#X connect 17 0 18 0;
#X connect 18 0 19 0;
#X connect 19 0 20 0;
#X connect 20 0 15 0;
#X restore 48 3 pd OSCh - - - - - - - - - - - - - - - - - - - - - -
- - -;
#X floatatom 314 26 5 0 0 0 - - -;
#X floatatom 359 21 5 0 0 0 - - -;
#X floatatom 406 22 5 0 0 0 - - -;
#X floatatom 344 336 5 0 0 0 - - -;
#X obj 750 68 s pitchControl;
#X obj 968 507 moses 100;
#X connect 0 0 6 0;
#X connect 1 0 10 0;
#X connect 1 1 11 0;
#X connect 2 0 1 2;
#X connect 3 0 1 3;
#X connect 4 0 1 4;
#X connect 6 0 168 0;
#X connect 7 0 6 0;
#X connect 8 0 6 1;
#X connect 9 0 7 0;
#X connect 10 0 5 0;
#X connect 11 0 5 1;
#X connect 12 0 150 0;
#X connect 13 0 0 1;
#X connect 14 0 0 2;
#X connect 15 0 8 1;
#X connect 22 0 27 2;
#X connect 23 0 27 3;
#X connect 24 0 27 4;
#X connect 25 0 27 0;
#X connect 25 1 27 1;
#X connect 27 0 207 0;
#X connect 27 1 208 0;
#X connect 28 0 25 1;
#X connect 29 0 25 0;
#X connect 30 0 25 0;
#X connect 32 0 33 0;
#X connect 34 0 35 0;
#X connect 38 0 36 0;
#X connect 39 0 37 0;
#X connect 41 0 40 0;
#X connect 43 0 217 0;
#X connect 43 1 83 0;
#X connect 44 0 80 0;
#X connect 45 0 72 0;
#X connect 46 0 71 0;
#X connect 47 0 44 0;
#X connect 48 0 46 0;
#X connect 49 0 45 0;
#X connect 50 0 46 1;
#X connect 51 0 45 1;
#X connect 52 0 43 1;
#X connect 53 0 44 1;
#X connect 54 0 46 2;
#X connect 55 0 45 2;
#X connect 56 0 43 2;
#X connect 57 0 44 2;
#X connect 58 0 43 0;
#X connect 60 0 62 0;
#X connect 61 0 62 1;
#X connect 62 0 63 0;
#X connect 62 1 63 1;
#X connect 62 2 64 0;
#X connect 66 0 123 0;
#X connect 67 0 70 0;
#X connect 67 0 117 0;
#X connect 67 0 115 0;
#X connect 68 0 114 0;
#X connect 69 0 67 0;
#X connect 70 0 68 1;
#X connect 71 0 74 0;
#X connect 73 0 75 0;
#X connect 73 1 76 0;
#X connect 75 0 85 0;
#X connect 77 0 8 0;
#X connect 78 0 7 1;
#X connect 79 0 7 2;
#X connect 81 0 8 2;
#X connect 81 0 8 3;
#X connect 82 0 10 1;
#X connect 82 0 11 1;
#X connect 83 0 84 0;
#X connect 86 0 9 0;
#X connect 87 0 0 0;
#X connect 88 0 94 0;
#X connect 89 0 88 1;
#X connect 90 0 88 2;
#X connect 91 0 92 0;
#X connect 92 0 102 0;
#X connect 93 0 88 0;
#X connect 94 0 6 0;
#X connect 95 0 97 0;
#X connect 96 0 101 0;
#X connect 97 0 96 0;
#X connect 98 0 94 1;
#X connect 99 0 94 1;
#X connect 100 0 97 1;
#X connect 101 0 99 0;
#X connect 101 1 98 0;
#X connect 101 2 98 0;
#X connect 101 3 98 0;
#X connect 101 4 98 0;
#X connect 102 0 93 0;
#X connect 105 0 210 0;
#X connect 106 0 227 0;
#X connect 107 0 105 1;
#X connect 108 0 105 2;
#X connect 108 0 211 0;
#X connect 109 0 110 0;
#X connect 110 0 105 0;
#X connect 111 0 110 1;
#X connect 112 0 106 0;
#X connect 113 0 114 1;
#X connect 114 0 121 0;
#X connect 115 0 116 0;
#X connect 116 0 113 0;
#X connect 117 0 113 0;
#X connect 120 0 210 1;
#X connect 121 0 126 0;
#X connect 122 0 121 1;
#X connect 123 0 68 0;
#X connect 124 0 151 1;
#X connect 127 0 10 0;
#X connect 127 0 11 0;
#X connect 128 0 10 0;
#X connect 128 0 11 0;
#X connect 130 0 131 0;
#X connect 130 0 135 0;
#X connect 130 0 149 0;
#X connect 131 0 132 0;
#X connect 132 0 133 0;
#X connect 133 0 134 0;
#X connect 134 0 144 0;
#X connect 135 0 136 0;
#X connect 135 0 137 0;
#X connect 135 0 142 0;
#X connect 136 0 143 0;
#X connect 137 0 134 1;
#X connect 138 0 133 1;
#X connect 139 0 133 2;
#X connect 141 0 144 1;
#X connect 142 0 141 0;
#X connect 143 0 141 0;
#X connect 144 0 148 0;
#X connect 145 0 146 0;
#X connect 147 0 145 1;
#X connect 148 0 145 0;
#X connect 149 0 132 0;
#X connect 150 0 151 0;
#X connect 151 0 6 0;
#X connect 158 0 200 0;
#X connect 158 0 206 0;
#X connect 159 0 201 0;
#X connect 159 0 212 0;
#X connect 160 0 162 0;
#X connect 160 0 202 0;
#X connect 161 0 163 0;
#X connect 161 0 203 0;
#X connect 164 0 166 0;
#X connect 164 0 204 0;
#X connect 165 0 167 0;
#X connect 165 0 205 0;
#X connect 168 0 1 1;
#X connect 168 0 1 0;
#X connect 169 0 168 1;
#X connect 170 0 168 1;
#X connect 171 0 209 0;
#X connect 171 0 210 1;
#X connect 172 0 26 1;
#X connect 173 0 26 0;
#X connect 174 0 173 1;
#X connect 174 0 172 1;
#X connect 175 0 173 1;
#X connect 175 0 172 1;
#X connect 176 0 121 1;
#X connect 177 0 151 1;
#X connect 178 0 1 2;
#X connect 179 0 27 2;
#X connect 180 0 185 0;
#X connect 181 0 184 0;
#X connect 182 0 186 0;
#X connect 183 0 187 0;
#X connect 188 0 12 0;
#X connect 189 0 12 1;
#X connect 190 0 66 0;
#X connect 191 0 66 1;
#X connect 192 0 111 0;
#X connect 193 0 111 1;
#X connect 207 0 173 0;
#X connect 208 0 172 0;
#X connect 210 0 104 0;
#X connect 210 0 104 1;
#X connect 215 0 218 0;
#X connect 216 0 218 1;
#X connect 217 0 73 0;
#X connect 217 0 225 0;
#X connect 218 0 220 0;
#X connect 218 0 226 0;
#X connect 219 0 217 1;
#X connect 221 0 152 0;
#X connect 221 0 194 0;
#X connect 221 1 153 0;
#X connect 221 1 195 0;
#X connect 221 2 154 0;
#X connect 221 2 196 0;
#X connect 221 3 155 0;
#X connect 221 3 197 0;
#X connect 221 4 156 0;
#X connect 221 4 198 0;
#X connect 221 5 157 0;
#X connect 221 6 158 0;
#X connect 221 7 159 0;
#X connect 221 8 160 0;
#X connect 221 9 161 0;
#X connect 221 12 215 0;
#X connect 221 12 222 0;
#X connect 221 13 216 0;
#X connect 221 13 223 0;
#X connect 221 14 224 0;
#X connect 227 0 109 0;
