#N canvas 952 0 958 978 10;
#X obj 28 73 freeverb~;
#X msg 132 76 roomsize \$1;
#X obj 29 31 inlet~;
#X obj 80 32 inlet~;
#X obj 28 124 outlet~;
#X obj 80 125 outlet~;
#X obj 132 32 inlet;
#X obj 221 33 inlet;
#X msg 221 77 wet \$1;
#X obj 278 34 inlet;
#X msg 278 78 dry \$1;
#X connect 0 0 4 0;
#X connect 0 1 5 0;
#X connect 1 0 0 0;
#X connect 2 0 0 0;
#X connect 3 0 0 1;
#X connect 6 0 1 0;
#X connect 7 0 8 0;
#X connect 8 0 0 0;
#X connect 9 0 10 0;
#X connect 10 0 0 0;
