#N canvas 0 0 805 507 10;
#X obj -2501 -30359 noise~;
#X obj -2426 -30309 +~;
#X obj -2373 -30364 *~ 10000;
#X obj -2477 -30266 vcf~ 220 1;
#X obj -2374 -30391 osc~ 500;
#X obj -2438 -30416 *~;
#X obj -2435 -30456 osc~;
#X obj -2438 -30380 *~ 15000;
#X obj -2477 -30231 outlet~;
#X obj -2436 -30500 inlet;
#X obj -2373 -30500 inlet;
#X connect 0 0 3 0;
#X connect 1 0 3 1;
#X connect 2 0 1 1;
#X connect 3 0 8 0;
#X connect 4 0 2 0;
#X connect 5 0 7 0;
#X connect 6 0 5 0;
#X connect 6 0 5 1;
#X connect 7 0 1 0;
#X connect 9 0 6 0;
#X connect 10 0 4 0;
