#N canvas 952 550 958 428 10;
#X obj 105 170 unpack i i i i i i i i i i i i i i i;
#X floatatom 102 217 5 0 0 0 - - -;
#X floatatom 138 216 5 0 0 0 - - -;
#X floatatom 174 216 5 0 0 0 - - -;
#X floatatom 210 216 5 0 0 0 - - -;
#X floatatom 246 215 5 0 0 0 - - -;
#X floatatom 282 215 5 0 0 0 - - -;
#X floatatom 319 215 5 0 0 0 - - -;
#X floatatom 355 214 5 0 0 0 - - -;
#X floatatom 391 214 5 0 0 0 - - -;
#X floatatom 429 215 5 0 0 0 - - -;
#X floatatom 465 214 5 0 0 0 - - -;
#X floatatom 503 216 5 0 0 0 - - -;
#X floatatom 545 217 5 0 0 0 - - -;
#X floatatom 581 216 5 0 0 0 - - -;
#X floatatom 619 217 5 0 0 0 - - -;
#X floatatom 150 326 5 0 0 0 - - -;
#X obj 388 129 metro;
#X obj 415 103 inlet;
#X obj 388 151 random 20;
#X obj 388 172 select 0 1 2 3 4 5 6 7 8 9 10 11 12 13 14 15 16 17 18
19;
#X floatatom 657 217 5 0 0 0 - - -;
#X floatatom 697 217 5 0 0 0 - - -;
#X floatatom 738 217 5 0 0 0 - - -;
#X floatatom 776 217 5 0 0 0 - - -;
#X msg 105 109 48 50 51 53 55 56 59 60 61 62 64 66 67 70 71;
#X obj 150 352 outlet;
#X obj 387 71 inlet;
#X connect 0 0 1 0;
#X connect 0 1 2 0;
#X connect 0 2 3 0;
#X connect 0 3 4 0;
#X connect 0 4 5 0;
#X connect 0 5 6 0;
#X connect 0 6 7 0;
#X connect 0 7 8 0;
#X connect 0 8 9 0;
#X connect 0 9 10 0;
#X connect 0 10 11 0;
#X connect 0 11 12 0;
#X connect 0 12 13 0;
#X connect 0 13 14 0;
#X connect 0 14 15 0;
#X connect 1 0 16 0;
#X connect 2 0 16 0;
#X connect 3 0 16 0;
#X connect 4 0 16 0;
#X connect 5 0 16 0;
#X connect 6 0 16 0;
#X connect 7 0 16 0;
#X connect 8 0 16 0;
#X connect 9 0 16 0;
#X connect 10 0 16 0;
#X connect 11 0 16 0;
#X connect 12 0 16 0;
#X connect 13 0 16 0;
#X connect 14 0 16 0;
#X connect 15 0 16 0;
#X connect 16 0 26 0;
#X connect 17 0 19 0;
#X connect 18 0 17 1;
#X connect 19 0 20 0;
#X connect 20 0 1 0;
#X connect 20 1 2 0;
#X connect 20 2 3 0;
#X connect 20 3 4 0;
#X connect 20 4 5 0;
#X connect 20 5 6 0;
#X connect 20 6 7 0;
#X connect 20 7 8 0;
#X connect 20 8 9 0;
#X connect 20 9 10 0;
#X connect 20 10 11 0;
#X connect 20 11 12 0;
#X connect 20 12 13 0;
#X connect 20 13 14 0;
#X connect 20 14 15 0;
#X connect 20 15 21 0;
#X connect 20 16 22 0;
#X connect 20 17 23 0;
#X connect 20 18 24 0;
#X connect 25 0 0 0;
#X connect 27 0 25 0;
#X connect 27 0 17 0;
