#N canvas 0 414 956 564 10;
#X obj 475 206 soundfiler;
#X floatatom 426 234 5 0 0 0 - - -;
#X obj 619 207 soundfiler;
#X floatatom 570 235 5 0 0 0 - - -;
#X obj 257 207 soundfiler;
#X floatatom 257 234 5 0 0 0 - - -;
#X obj 14 204 soundfiler;
#X floatatom 12 233 5 0 0 0 - - -;
#X obj 63 231 table kick;
#X msg 15 157 read -resize \$1 kick;
#X msg 257 165 read -resize \$1 hat;
#X msg 475 164 read -resize \$1 snare;
#X msg 619 165 read -resize \$1 boom;
#X obj 308 236 table hat;
#X obj 477 236 table snare;
#X obj 621 237 table boom;
#X obj 173 457 tabplay~ kick;
#X obj 283 456 tabplay~ hat;
#X obj 380 456 tabplay~ snare;
#X obj 499 454 tabplay~ boom;
#X obj 615 455 tabplay~ openhat;
#X obj 795 205 soundfiler;
#X floatatom 746 233 5 0 0 0 - - -;
#X msg 795 163 read -resize \$1 openhat;
#X obj 797 235 table openhat;
#X obj 740 452 tabplay~ openhat;
#X obj 855 449 tabplay~ hat;
#X obj 449 350 random 8;
#X obj 449 397 select 0 1 2 3 4 5 6 7;
#X obj 507 288 inlet;
#X obj 492 504 outlet~;
#X obj 565 505 outlet~;
#X obj 449 287 inlet;
#X obj 799 45 loadbang;
#X obj 628 44 loadbang;
#X obj 425 39 loadbang;
#X obj 257 45 loadbang;
#X obj 19 48 loadbang;
#X msg 17 94 open C:/Users/maxhe/Desktop/Sample/DAT-HipHop2-Kick2_1.aif
\, 1;
#X msg 423 71 open C:/Users/maxhe/Desktop/Sample/DAT-HipHop2-Snare2_1.aif
\, 1;
#X msg 592 126 open C:/Users/maxhe/Desktop/Sample/DAT-HipHop2-SubBoom.aif
\, 1;
#X msg 254 137 open C:/Users/maxhe/Desktop/Sample/DAT-HipHop2-Hat2_1.aif
\, 1;
#X msg 773 79 open C:/Users/maxhe/Desktop/Sample/271_hi_hat_samples/hihat_027a.wav
\, 1;
#X obj 449 313 metro;
#X text 53 283 Samples provided in Github repo \, please change path
;
#X connect 0 0 1 0;
#X connect 2 0 3 0;
#X connect 4 0 5 0;
#X connect 6 0 7 0;
#X connect 9 0 6 0;
#X connect 10 0 4 0;
#X connect 11 0 0 0;
#X connect 12 0 2 0;
#X connect 16 0 30 0;
#X connect 16 0 31 0;
#X connect 17 0 30 0;
#X connect 17 0 31 0;
#X connect 18 0 30 0;
#X connect 18 0 31 0;
#X connect 19 0 30 0;
#X connect 19 0 31 0;
#X connect 20 0 30 0;
#X connect 20 0 31 0;
#X connect 21 0 22 0;
#X connect 23 0 21 0;
#X connect 25 0 30 0;
#X connect 26 0 31 0;
#X connect 27 0 28 0;
#X connect 28 0 16 0;
#X connect 28 1 17 0;
#X connect 28 2 18 0;
#X connect 28 3 19 0;
#X connect 28 4 20 0;
#X connect 28 5 25 0;
#X connect 28 6 26 0;
#X connect 29 0 43 1;
#X connect 32 0 43 0;
#X connect 33 0 42 0;
#X connect 34 0 40 0;
#X connect 35 0 39 0;
#X connect 36 0 41 0;
#X connect 37 0 38 0;
#X connect 38 0 9 0;
#X connect 39 0 11 0;
#X connect 40 0 12 0;
#X connect 41 0 10 0;
#X connect 42 0 23 0;
#X connect 43 0 27 0;
