#N canvas 424 0 525 489 10;
#X obj 193 246 line~;
#X obj 192 272 *~;
#X obj 135 144 bng 15 250 50 0 empty empty empty 17 7 0 10 -262144
-1 -1;
#X obj 220 214 pack 0 500;
#X floatatom 231 145 5 0 0 0 - - -;
#X text 140 185 Attack;
#X floatatom 275 145 5 0 0 0 - - -;
#X floatatom 180 188 5 0 0 0 - - -;
#X obj 192 302 outlet~;
#X obj 135 121 inlet;
#X obj 180 122 inlet;
#X obj 231 120 inlet;
#X obj 275 120 inlet;
#X text 311 144 Sustain;
#X obj 135 216 pack 1 5;
#X obj 220 185 del;
#X text 183 145 Release;
#X connect 0 0 1 0;
#X connect 0 0 1 1;
#X connect 1 0 8 0;
#X connect 2 0 14 0;
#X connect 2 0 15 0;
#X connect 3 0 0 0;
#X connect 4 0 3 1;
#X connect 6 0 15 1;
#X connect 7 0 14 1;
#X connect 9 0 2 0;
#X connect 10 0 7 0;
#X connect 11 0 4 0;
#X connect 12 0 6 0;
#X connect 14 0 0 0;
#X connect 15 0 3 0;
