#N canvas 0 0 1920 988 10;
#X obj 480 335 FmOsc;
#X obj 474 682 MyReverb;
#X obj 551 635 hsl 128 15 0 1 0 0 empty empty empty -2 -8 0 10 -262144
-1 -1 8300 1;
#X obj 549 659 hsl 128 15 0 1 0 0 empty empty empty -2 -8 0 10 -262144
-1 -1 900 1;
#X obj 550 684 hsl 128 15 0 1 0 0 empty empty empty -2 -8 0 10 -262144
-1 -1 800 1;
#X obj 481 797 dac~;
#X obj 480 546 *~;
#X obj 199 363 FmOsc;
#X obj 702 530 EnvelopeASR;
#X obj 199 340 * 2.008;
#X obj 475 744 *~;
#X obj 505 742 *~;
#X obj 134 500 NoiseOsc;
#X floatatom 134 474 5 0 0 0 - - -;
#X floatatom 179 475 5 0 0 0 - - -;
#X obj 527 310 r FMratio;
#X obj 587 309 r FMdepth;
#X obj 723 502 r envAtt;
#X obj 572 9 cnv 15 180 130 empty empty Transition_Matrices 20 12 0
14 -204786 -66577 0;
#X obj 616 39 coll PitchSTM;
#C restore;
#X obj 616 61 coll LengthSTM;
#C restore;
#X obj 616 84 coll RestSTM;
#C restore;
#X obj 616 107 coll VelocitySTM;
#C restore;
#X obj 1153 10 cnv 15 275 220 empty empty Beat_Slicer_(Optional) 20
12 0 14 -260097 -66577 0;
#X obj 1277 97 hsl 128 15 0 1 0 0 empty empty empty -2 -8 0 10 -262144
-1 -1 2000 1;
#X obj 1277 144 hsl 128 15 0 1 0 0 empty empty empty -2 -8 0 10 -262144
-1 -1 1300 1;
#X obj 1277 188 hsl 128 15 0 1 0 0 empty empty empty -2 -8 0 10 -262144
-1 -1 1800 1;
#X obj 1167 93 BeatSlicerSub;
#X obj 1189 200 dac~;
#X obj 1167 139 MyReverb;
#X floatatom 1242 66 5 0 0 0 - - -;
#X obj 1167 66 r tog;
#X msg 1208 67 0;
#X obj 52 9 cnv 15 375 125 empty empty General_Control 20 12 0 14 -232576
-66577 0;
#X obj 65 48 tgl 15 0 empty empty empty 17 7 0 10 -262144 -1 -1 1 1
;
#X obj 65 73 s tog;
#X obj 103 48 bng 15 250 50 0 empty empty empty 17 7 0 10 -262144 -1
-1;
#X obj 103 73 s newSTM;
#X obj 185 77 s FMratio;
#X obj 248 76 s FMdepth;
#X floatatom 185 54 5 0 0 0 - - -;
#X floatatom 248 53 5 0 0 0 - - -;
#X obj 353 76 s envAtt;
#X floatatom 353 51 5 0 0 0 - - -;
#X obj 52 128 cnv 15 700 150 empty empty Markov_Sequencers 20 12 0
14 -204786 -66577 0;
#X obj 438 180 MarkovPitchSequences;
#X obj 606 178 MarkovLengthSequences;
#X obj 281 180 MarkovRestSequences;
#X obj 106 180 MarkovVelocitySequences;
#X obj 606 153 r tog;
#X obj 106 156 r tog;
#X obj 281 157 r tog;
#X obj 141 156 r tempo;
#X obj 316 157 r tempo;
#X obj 473 155 r tempo;
#X obj 640 153 r tempo;
#X obj 188 156 r newSTM;
#X obj 363 157 r newSTM;
#X obj 520 155 r newSTM;
#X obj 687 153 r newSTM;
#X obj 438 155 r tog;
#X obj 413 9 cnv 15 175 125 empty empty MIDI_Analysis 20 12 0 14 -204786
-66577 0;
#X obj 442 49 bng 15 250 50 0 empty empty empty 17 7 0 10 -262144 -1
-1;
#X obj 529 49 bng 15 250 50 0 empty empty empty 17 7 0 10 -262144 -1
-1;
#N canvas 954 247 450 313 loadMidiFile 0;
#X obj 30 47 inlet;
#X obj 79 48 inlet;
#X msg 30 78 read;
#X obj 30 110 seq;
#X msg 79 78 start 65536;
#X obj 34 166 unpack;
#X obj 34 192 stripnote;
#X floatatom 38 215 5 0 0 0 - - -;
#X obj 39 245 outlet;
#X obj 125 115 bng 15 250 50 0 empty empty empty 17 7 0 10 -262144
-1 -1;
#X obj 127 136 outlet;
#X obj 29 138 midiparse;
#X floatatom 87 217 5 0 0 0 - - -;
#X obj 88 247 outlet;
#X connect 0 0 2 0;
#X connect 1 0 4 0;
#X connect 2 0 3 0;
#X connect 3 0 11 0;
#X connect 3 1 9 0;
#X connect 4 0 3 0;
#X connect 5 0 6 0;
#X connect 5 1 6 1;
#X connect 6 0 7 0;
#X connect 6 1 12 0;
#X connect 7 0 8 0;
#X connect 9 0 10 0;
#X connect 11 0 5 0;
#X connect 12 0 13 0;
#X restore 442 72 pd loadMidiFile;
#N canvas 536 417 450 300 MidiAnalysis 0;
#X obj 30 31 inlet;
#N canvas 1425 608 450 318 pair 0;
#X obj 32 39 inlet;
#X floatatom 32 65 5 0 0 0 - - -;
#X obj 33 87 t f b f;
#X obj 36 115 f;
#X obj 37 144 pack;
#X obj 40 171 outlet;
#X connect 0 0 1 0;
#X connect 1 0 2 0;
#X connect 2 0 3 1;
#X connect 2 1 3 0;
#X connect 2 2 4 1;
#X connect 3 0 4 0;
#X connect 4 0 5 0;
#X restore 29 66 pd pair;
#X msg 27 95 merge \$1 \$2;
#X obj 160 34 inlet;
#N canvas 1425 608 450 318 pair 0;
#X obj 32 39 inlet;
#X floatatom 32 65 5 0 0 0 - - -;
#X obj 33 87 t f b f;
#X obj 36 115 f;
#X obj 37 144 pack;
#X obj 40 171 outlet;
#X connect 0 0 1 0;
#X connect 1 0 2 0;
#X connect 2 0 3 1;
#X connect 2 1 3 0;
#X connect 2 2 4 1;
#X connect 3 0 4 0;
#X connect 4 0 5 0;
#X restore 159 69 pd pair;
#X msg 157 98 merge \$1 \$2;
#X obj 160 128 coll VelocitySTM;
#C restore;
#X obj 30 125 coll PitchSTM;
#C restore;
#X connect 0 0 1 0;
#X connect 1 0 2 0;
#X connect 2 0 7 0;
#X connect 3 0 4 0;
#X connect 4 0 5 0;
#X connect 5 0 6 0;
#X restore 442 102 pd MidiAnalysis;
#X obj 554 89 bng 15 250 50 0 empty empty empty 17 7 0 10 -262144 -1
-1;
#X obj 752 9 cnv 15 200 270 empty empty Random_Noise 20 12 0 14 -162280
-66577 0;
#X floatatom 769 39 5 0 0 0 - - -;
#X floatatom 814 40 5 0 0 0 - - -;
#X obj 769 71 NoiseOsc;
#X obj 868 73 metro 5000;
#X obj 771 130 spigot~;
#X obj 868 42 r tog;
#X obj 821 104 random 4;
#X obj 106 201 / 100;
#X obj 281 249 s tempo;
#X obj 438 206 t f b;
#X obj 106 246 s velocity;
#X obj 438 229 mtof;
#X obj 488 253 s noteBang;
#X obj 702 480 r noteBang;
#X obj 245 314 r FMratio;
#X obj 309 313 r FMdepth;
#X obj 606 247 s noteLength;
#X obj 781 502 r noteLength;
#X obj 573 718 r velocity;
#X obj 555 207 mtof;
#X obj 555 230 s freq2;
#X obj 438 253 s freq1;
#X obj 199 314 r freq1;
#X obj 480 310 r freq1;
#X obj 696 408 FmOsc;
#X obj 743 309 r FMratio;
#X obj 803 308 r FMdepth;
#X obj 696 309 r freq1;
#X obj 696 342 ftom;
#X obj 696 385 mtof;
#X obj 695 437 *~;
#X obj 736 331 r tog;
#X obj 736 377 random 5;
#X obj 736 354 metro 500;
#X msg 783 420 0;
#X msg 736 419 1;
#X obj 787 332 r tempo;
#X obj 736 399 select 0 1 2 3 4;
#X obj 696 364 + 5;
#X obj 952 280 cnv 15 200 300 empty empty Secondry_Voice 20 12 0 14
-4032 -66577 0;
#X obj 982 535 dac~;
#X obj 982 472 FMOsc;
#X obj 980 362 ftom;
#X obj 1021 444 r FMratio;
#X obj 1086 444 r FMdepth;
#X obj 980 413 mtof~;
#X obj 981 439 +~;
#X obj 1044 415 LFO;
#X floatatom 1044 389 5 0 0 0 - - -;
#X floatatom 1083 389 5 0 0 0 - - -;
#X obj 980 333 r freq1;
#X obj 980 388 moses 40;
#X obj 785 175 line~;
#X obj 771 200 *~;
#X obj 882 95 delay 4000;
#X msg 882 142 0 1000;
#X msg 824 141 1 1000;
#X obj 1171 164 *~ 0.1;
#X obj 1217 164 *~ 0.1;
#X text 872 11 2 \, 4;
#X text 1104 281 2 \, 1;
#X text 132 453 3 \, 2?;
#X obj 981 496 *~ 0.5;
#X obj 1083 490 vsl 15 60 0 1 0 0 empty empty empty 0 -9 0 10 -262144
-1 -1 2300 1;
#X obj 771 223 *~;
#X obj 849 182 vsl 15 60 0 1 0 0 empty empty empty 0 -9 0 10 -262144
-1 -1 3900 1;
#X obj 770 104 *~ 0.5;
#X obj 226 473 vsl 15 60 0 1 0 0 empty empty empty 0 -9 0 10 -262144
-1 -1 5900 1;
#X text 991 563 Make a send;
#X obj 771 250 s~ noiz1;
#X obj 406 685 r~ noiz1;
#X obj 404 717 r~ noiz2;
#X obj 952 9 cnv 15 200 270 empty empty Random_FM 20 12 0 14 -257985
-66577 0;
#X obj 965 34 r tog;
#X obj 965 73 metro 20;
#X obj 965 98 counter 1500 0;
#X obj 965 138 FmOsc;
#X obj 965 163 spigot~;
#X obj 1060 51 metro 10000;
#X obj 1028 73 delay 5000;
#X obj 1098 73 random 4;
#X floatatom 1009 138 5 0 0 0 - - -;
#X floatatom 1049 137 5 0 0 0 - - -;
#X text 1025 116 4 \, 12;
#X obj 1106 129 line~;
#X msg 1060 98 1 5000;
#X msg 1106 98 0 5000;
#X obj 964 194 *~;
#X obj 964 235 *~;
#X obj 963 259 s~ noiz2;
#X obj 1065 184 vsl 15 60 0 1 0 0 empty empty empty 0 -9 0 10 -262144
-1 -1 1400 1;
#X obj 964 215 *~ 0.5;
#X msg 1001 51 updown;
#X obj 1088 333 r tog;
#X obj 1088 361 metro 50;
#X obj 1049 472 / 50;
#X obj 1044 507 -;
#X obj 135 532 *~ 2;
#X obj 136 556 *~;
#X connect 0 0 6 0;
#X connect 1 0 10 0;
#X connect 1 1 11 0;
#X connect 2 0 1 2;
#X connect 3 0 1 3;
#X connect 4 0 1 4;
#X connect 6 0 1 0;
#X connect 6 0 1 1;
#X connect 7 0 6 0;
#X connect 8 0 6 1;
#X connect 9 0 7 0;
#X connect 10 0 5 0;
#X connect 11 0 5 1;
#X connect 12 0 165 0;
#X connect 13 0 12 0;
#X connect 14 0 12 1;
#X connect 15 0 0 1;
#X connect 16 0 0 2;
#X connect 17 0 8 1;
#X connect 24 0 29 2;
#X connect 25 0 29 3;
#X connect 26 0 29 4;
#X connect 27 0 29 0;
#X connect 27 1 29 1;
#X connect 29 0 125 0;
#X connect 29 1 126 0;
#X connect 30 0 27 1;
#X connect 31 0 27 0;
#X connect 32 0 27 0;
#X connect 34 0 35 0;
#X connect 36 0 37 0;
#X connect 40 0 38 0;
#X connect 41 0 39 0;
#X connect 43 0 42 0;
#X connect 45 0 77 0;
#X connect 45 1 87 0;
#X connect 46 0 84 0;
#X connect 47 0 76 0;
#X connect 48 0 75 0;
#X connect 49 0 46 0;
#X connect 50 0 48 0;
#X connect 51 0 47 0;
#X connect 52 0 48 1;
#X connect 53 0 47 1;
#X connect 54 0 45 1;
#X connect 55 0 46 1;
#X connect 56 0 48 2;
#X connect 57 0 47 2;
#X connect 58 0 45 2;
#X connect 59 0 46 2;
#X connect 60 0 45 0;
#X connect 62 0 64 0;
#X connect 63 0 64 1;
#X connect 64 0 65 0;
#X connect 64 1 65 1;
#X connect 64 2 66 0;
#X connect 68 0 70 0;
#X connect 69 0 70 1;
#X connect 70 0 134 0;
#X connect 71 0 74 0;
#X connect 71 0 124 0;
#X connect 71 0 122 0;
#X connect 72 0 121 0;
#X connect 73 0 71 0;
#X connect 74 0 72 1;
#X connect 75 0 78 0;
#X connect 77 0 79 0;
#X connect 77 1 80 0;
#X connect 79 0 89 0;
#X connect 81 0 8 0;
#X connect 82 0 7 1;
#X connect 83 0 7 2;
#X connect 85 0 8 2;
#X connect 85 0 8 3;
#X connect 86 0 10 1;
#X connect 86 0 11 1;
#X connect 87 0 88 0;
#X connect 90 0 9 0;
#X connect 91 0 0 0;
#X connect 92 0 98 0;
#X connect 93 0 92 1;
#X connect 94 0 92 2;
#X connect 95 0 96 0;
#X connect 96 0 106 0;
#X connect 97 0 92 0;
#X connect 98 0 6 0;
#X connect 99 0 101 0;
#X connect 100 0 105 0;
#X connect 101 0 100 0;
#X connect 102 0 98 1;
#X connect 103 0 98 1;
#X connect 104 0 101 1;
#X connect 105 0 103 0;
#X connect 105 1 102 0;
#X connect 105 2 102 0;
#X connect 105 3 102 0;
#X connect 105 4 102 0;
#X connect 106 0 97 0;
#X connect 109 0 130 0;
#X connect 110 0 119 0;
#X connect 111 0 109 1;
#X connect 112 0 109 2;
#X connect 112 0 163 0;
#X connect 113 0 114 0;
#X connect 114 0 109 0;
#X connect 115 0 114 1;
#X connect 116 0 115 0;
#X connect 117 0 115 1;
#X connect 118 0 110 0;
#X connect 119 0 113 0;
#X connect 120 0 121 1;
#X connect 121 0 132 0;
#X connect 122 0 123 0;
#X connect 123 0 120 0;
#X connect 124 0 120 0;
#X connect 125 0 28 0;
#X connect 126 0 28 1;
#X connect 130 0 108 0;
#X connect 130 0 108 1;
#X connect 131 0 164 0;
#X connect 132 0 137 0;
#X connect 133 0 132 1;
#X connect 134 0 72 0;
#X connect 135 0 166 1;
#X connect 138 0 10 0;
#X connect 138 0 11 0;
#X connect 139 0 10 0;
#X connect 139 0 11 0;
#X connect 141 0 142 0;
#X connect 141 0 146 0;
#X connect 141 0 160 0;
#X connect 142 0 143 0;
#X connect 143 0 144 0;
#X connect 144 0 145 0;
#X connect 145 0 155 0;
#X connect 146 0 147 0;
#X connect 146 0 148 0;
#X connect 146 0 153 0;
#X connect 147 0 154 0;
#X connect 148 0 145 1;
#X connect 149 0 144 1;
#X connect 150 0 144 2;
#X connect 152 0 155 1;
#X connect 153 0 152 0;
#X connect 154 0 152 0;
#X connect 155 0 159 0;
#X connect 156 0 157 0;
#X connect 158 0 156 1;
#X connect 159 0 156 0;
#X connect 160 0 143 0;
#X connect 161 0 162 0;
#X connect 162 0 131 0;
#X connect 163 0 164 1;
#X connect 164 0 130 1;
#X connect 165 0 166 0;
#X connect 166 0 6 0;
