#N canvas -8 0 429 488 10;
#X obj 46 263 +~;
#X obj 77 154 *~;
#X obj 77 190 osc~;
#X obj 125 191 *~;
#X obj 77 219 *~;
#X obj 45 119 inlet~;
#X obj 91 120 inlet~;
#X obj 140 121 inlet~;
#X obj 47 293 osc~;
#X obj 46 320 outlet~;
#X text 50 99 Freq;
#X text 92 99 Harm;
#X text 138 100 Mod Index;
#X connect 0 0 8 0;
#X connect 1 0 2 0;
#X connect 1 0 3 0;
#X connect 2 0 4 0;
#X connect 3 0 4 1;
#X connect 4 0 0 1;
#X connect 5 0 1 0;
#X connect 5 0 0 0;
#X connect 6 0 1 1;
#X connect 7 0 3 1;
#X connect 8 0 9 0;
