#N canvas 534 0 1376 978 10;
#X obj 103 274 FmOsc;
#X obj 103 384 MyReverb;
#X obj 210 279 hsl 128 15 0 1 0 0 empty empty empty -2 -8 0 10 -262144
-1 -1 0 1;
#X obj 208 311 hsl 128 15 0 1 0 0 empty empty empty -2 -8 0 10 -262144
-1 -1 0 1;
#X obj 207 342 hsl 128 15 0 1 0 0 empty empty empty -2 -8 0 10 -262144
-1 -1 0 1;
#X obj 104 453 dac~;
#X obj 37 108 RandNotesMelodicMinor;
#X floatatom 37 137 5 0 0 0 - - -;
#X floatatom 69 5 5 0 0 0 - - -;
#X floatatom 102 184 5 0 0 0 - - -;
#X floatatom 153 183 5 0 0 0 - - -;
#X obj 103 321 *~;
#X floatatom 216 182 5 0 0 0 - - -;
#X floatatom 255 182 5 0 0 0 - - -;
#X floatatom 294 182 5 0 0 0 - - -;
#X obj 37 159 t f b;
#X obj 391 272 BeatSlicerSub;
#X obj 430 369 dac~;
#X obj 70 29 s tempo;
#X obj 23 5 tgl 15 0 empty empty empty 17 7 0 10 -262144 -1 -1 0 1
;
#X obj 23 29 s tog;
#X obj 37 79 r tog;
#X obj 160 79 r tempo;
#X obj 466 242 r tempo;
#X obj 412 318 MyReverb;
#X obj 37 183 mtof;
#X obj 22 299 FmOsc;
#X obj 21 263 * 2.008;
#X obj 216 230 EnvelopeASR;
#X obj 391 237 r tog;
#X obj 766 420 FmOsc;
#X obj 766 530 MyReverb;
#X obj 869 432 hsl 128 15 0 1 0 0 empty empty empty -2 -8 0 10 -262144
-1 -1 0 1;
#X obj 871 457 hsl 128 15 0 1 0 0 empty empty empty -2 -8 0 10 -262144
-1 -1 0 1;
#X obj 870 488 hsl 128 15 0 1 0 0 empty empty empty -2 -8 0 10 -262144
-1 -1 0 1;
#X obj 767 599 dac~;
#X floatatom 854 199 5 0 0 0 - - -;
#X floatatom 765 330 5 0 0 0 - - -;
#X floatatom 816 329 5 0 0 0 - - -;
#X obj 766 467 *~;
#X floatatom 879 328 5 0 0 0 - - -;
#X floatatom 918 328 5 0 0 0 - - -;
#X floatatom 957 328 5 0 0 0 - - -;
#X obj 700 234 t f b;
#X obj 700 329 mtof;
#X obj 685 445 FmOsc;
#X obj 879 376 EnvelopeASR;
#X obj 861 89 tgl 15 0 empty empty empty 17 7 0 10 -262144 -1 -1 1
1;
#X floatatom 905 95 5 0 0 0 - - -;
#X obj 952 96 bng 15 250 50 0 empty empty empty 17 7 0 10 -262144 -1
-1;
#X obj 684 409 * 2.008;
#X obj 904 615 coll PitchSTM;
#C restore;
#X obj 854 169 MarkovPitchSequences;
#X obj 1010 167 MarkovLengthSequences;
#X floatatom 1010 197 5 0 0 0 - - -;
#X obj 904 648 coll LengthSTM;
#C restore;
#X obj 902 681 coll RestSTM;
#C restore;
#X obj 719 167 MarkovRestSequences;
#X connect 0 0 11 0;
#X connect 1 0 5 0;
#X connect 1 1 5 1;
#X connect 2 0 1 2;
#X connect 2 0 24 2;
#X connect 3 0 1 3;
#X connect 3 0 24 3;
#X connect 4 0 1 4;
#X connect 4 0 24 4;
#X connect 6 0 7 0;
#X connect 7 0 15 0;
#X connect 8 0 18 0;
#X connect 9 0 0 1;
#X connect 9 0 26 1;
#X connect 10 0 0 2;
#X connect 10 0 26 2;
#X connect 11 0 1 0;
#X connect 11 0 1 1;
#X connect 12 0 28 1;
#X connect 13 0 28 2;
#X connect 14 0 28 3;
#X connect 15 0 25 0;
#X connect 15 1 28 0;
#X connect 16 0 24 0;
#X connect 16 1 24 1;
#X connect 19 0 20 0;
#X connect 21 0 6 0;
#X connect 22 0 6 1;
#X connect 23 0 16 1;
#X connect 24 0 17 0;
#X connect 24 1 17 1;
#X connect 25 0 0 0;
#X connect 25 0 27 0;
#X connect 26 0 11 0;
#X connect 27 0 26 0;
#X connect 28 0 11 1;
#X connect 29 0 16 0;
#X connect 30 0 39 0;
#X connect 31 0 35 0;
#X connect 31 1 35 1;
#X connect 32 0 31 2;
#X connect 33 0 31 3;
#X connect 34 0 31 4;
#X connect 36 0 43 0;
#X connect 37 0 30 1;
#X connect 37 0 45 1;
#X connect 38 0 30 2;
#X connect 38 0 45 2;
#X connect 39 0 31 0;
#X connect 39 0 31 1;
#X connect 40 0 46 1;
#X connect 41 0 46 2;
#X connect 42 0 46 3;
#X connect 43 0 44 0;
#X connect 43 1 46 0;
#X connect 44 0 30 0;
#X connect 44 0 50 0;
#X connect 45 0 39 0;
#X connect 46 0 39 1;
#X connect 47 0 52 0;
#X connect 47 0 53 0;
#X connect 47 0 57 0;
#X connect 48 0 52 1;
#X connect 48 0 53 1;
#X connect 48 0 57 1;
#X connect 49 0 52 2;
#X connect 49 0 53 2;
#X connect 49 0 57 2;
#X connect 50 0 45 0;
#X connect 52 0 36 0;
#X connect 53 0 54 0;
#X connect 54 0 41 0;
#X connect 54 0 42 0;
#X connect 57 0 48 0;
