#N canvas 0 0 450 300 10;
#X obj 144 138 metro 150;
#X obj 144 161 bng 15 250 50 0 empty empty empty 17 7 0 10 -262144
-1 -1;
#X obj 144 112 inlet;
#X obj 236 159 inlet;
#X obj 195 111 inlet;
#N canvas 689 291 450 300 MarkovVelocities 0;
#X obj 180 47 inlet;
#X obj 254 39 inlet;
#X obj 303 38 r finished;
#X floatatom 255 120 5 0 0 0 - - -;
#X obj 181 159 f;
#X obj 181 188 t f f;
#X obj 132 241 length;
#X obj 132 289 t b f;
#X obj 132 314 random;
#X obj 131 339 + 1;
#X obj 191 326 pack;
#X floatatom 288 352 5 0 0 0 - - -;
#X obj 288 376 outlet;
#X msg 254 69 next;
#X obj 180 103 bng 15 250 50 0 empty empty empty 17 7 0 10 -262144
-1 -1;
#X msg 191 372 nth \$2 \$1;
#X text 349 95 Markov STM stored here;
#X floatatom 132 266 5 0 0 0 - - -;
#X obj 390 217 coll RestSTM;
#C restore;
#X obj 132 213 coll VelocitySTM;
#C restore;
#X obj 255 94 coll VelocitySTM;
#C restore;
#X obj 191 400 coll VelocitySTM;
#C restore;
#X connect 0 0 14 0;
#X connect 1 0 13 0;
#X connect 2 0 13 0;
#X connect 3 0 4 1;
#X connect 4 0 5 0;
#X connect 5 0 19 0;
#X connect 5 1 10 1;
#X connect 6 0 17 0;
#X connect 7 0 8 0;
#X connect 7 1 8 1;
#X connect 8 0 9 0;
#X connect 9 0 10 0;
#X connect 10 0 15 0;
#X connect 11 0 4 1;
#X connect 11 0 12 0;
#X connect 13 0 20 0;
#X connect 14 0 4 0;
#X connect 15 0 21 0;
#X connect 17 0 7 0;
#X connect 19 0 6 0;
#X connect 20 0 3 0;
#X connect 21 0 11 0;
#X restore 144 201 pd MarkovVelocities;
#X floatatom 142 231 5 0 0 0 - - -;
#X obj 142 261 outlet;
#X connect 0 0 1 0;
#X connect 1 0 5 0;
#X connect 2 0 0 0;
#X connect 3 0 5 1;
#X connect 4 0 0 1;
#X connect 5 0 6 0;
#X connect 6 0 7 0;
