#N canvas 952 0 958 978 10;
#X obj 49 42 bng 15 250 50 0 empty empty empty 17 7 0 10 -262144 -1
-1;
#X obj 143 42 bng 15 250 50 0 empty empty empty 17 7 0 10 -262144 -1
-1;
#N canvas 954 247 450 313 loadMidiFile 0;
#X obj 30 47 inlet;
#X obj 79 48 inlet;
#X msg 30 78 read;
#X obj 30 110 seq;
#X msg 79 78 start 65536;
#X obj 34 166 unpack;
#X obj 34 192 stripnote;
#X floatatom 38 215 5 0 0 0 - - -;
#X obj 39 245 outlet;
#X obj 125 115 bng 15 250 50 0 empty empty empty 17 7 0 10 -262144
-1 -1;
#X obj 127 136 outlet;
#X obj 29 138 midiparse;
#X floatatom 87 217 5 0 0 0 - - -;
#X obj 88 247 outlet;
#X connect 0 0 2 0;
#X connect 1 0 4 0;
#X connect 2 0 3 0;
#X connect 3 0 11 0;
#X connect 3 1 9 0;
#X connect 4 0 3 0;
#X connect 5 0 6 0;
#X connect 5 1 6 1;
#X connect 6 0 7 0;
#X connect 6 1 12 0;
#X connect 7 0 8 0;
#X connect 9 0 10 0;
#X connect 11 0 5 0;
#X connect 12 0 13 0;
#X restore 49 80 pd loadMidiFile;
#N canvas 536 417 450 300 MidiAnalysis 1;
#X obj 30 31 inlet;
#N canvas 1425 608 450 318 pair 0;
#X obj 32 39 inlet;
#X floatatom 32 65 5 0 0 0 - - -;
#X obj 33 87 t f b f;
#X obj 36 115 f;
#X obj 37 144 pack;
#X obj 40 171 outlet;
#X connect 0 0 1 0;
#X connect 1 0 2 0;
#X connect 2 0 3 1;
#X connect 2 1 3 0;
#X connect 2 2 4 1;
#X connect 3 0 4 0;
#X connect 4 0 5 0;
#X restore 29 66 pd pair;
#X msg 27 95 merge \$1 \$2;
#X obj 160 34 inlet;
#N canvas 1425 608 450 318 pair 0;
#X obj 32 39 inlet;
#X floatatom 32 65 5 0 0 0 - - -;
#X obj 33 87 t f b f;
#X obj 36 115 f;
#X obj 37 144 pack;
#X obj 40 171 outlet;
#X connect 0 0 1 0;
#X connect 1 0 2 0;
#X connect 2 0 3 1;
#X connect 2 1 3 0;
#X connect 2 2 4 1;
#X connect 3 0 4 0;
#X connect 4 0 5 0;
#X restore 159 69 pd pair;
#X msg 157 98 merge \$1 \$2;
#X obj 160 128 coll VelocitySTM;
#C restore;
#X obj 30 125 coll PitchSTM;
#C restore;
#X connect 0 0 1 0;
#X connect 1 0 2 0;
#X connect 2 0 7 0;
#X connect 3 0 4 0;
#X connect 4 0 5 0;
#X connect 5 0 6 0;
#X restore 19 135 pd MidiAnalysis;
#X obj 161 104 bng 15 250 50 0 empty empty empty 17 7 0 10 -262144
-1 -1;
#X connect 0 0 2 0;
#X connect 1 0 2 1;
#X connect 2 0 3 0;
#X connect 2 1 3 1;
#X connect 2 2 4 0;
