#N canvas 952 0 958 457 10;
#X obj 114 108 metro 150;
#X floatatom 113 188 5 0 0 0 - - -;
#X obj 114 131 bng 15 250 50 0 empty empty empty 17 7 0 10 -262144
-1 -1;
#X obj 114 82 inlet;
#X obj 206 81 inlet;
#X obj 113 218 outlet;
#X text 537 196 Markov STM within this subpatch \, change coll STM
for new sequences;
#X obj 165 81 inlet;
#N canvas 952 521 958 457 MarkovPitches 0;
#X obj 171 32 inlet;
#X obj 244 29 inlet;
#X obj 293 28 r finished;
#X floatatom 245 110 5 0 0 0 - - -;
#X obj 171 149 f;
#X obj 171 178 t f f;
#X obj 122 231 length;
#X obj 122 279 t b f;
#X obj 122 304 random;
#X obj 121 329 + 1;
#X obj 181 316 pack;
#X floatatom 278 342 5 0 0 0 - - -;
#X obj 278 366 outlet;
#X msg 244 59 next;
#X obj 170 93 bng 15 250 50 0 empty empty empty 17 7 0 10 -262144 -1
-1;
#X msg 181 362 nth \$2 \$1;
#X text 308 84 Markov STM stored here;
#X floatatom 122 256 5 0 0 0 - - -;
#X obj 245 84 coll PitchSTM;
#C restore;
#X obj 122 203 coll PitchSTM;
#C restore;
#X obj 181 390 coll PitchSTM;
#C restore;
#X connect 0 0 14 0;
#X connect 1 0 13 0;
#X connect 2 0 13 0;
#X connect 3 0 4 1;
#X connect 4 0 5 0;
#X connect 5 0 19 0;
#X connect 5 1 10 1;
#X connect 6 0 17 0;
#X connect 7 0 8 0;
#X connect 7 1 8 1;
#X connect 8 0 9 0;
#X connect 9 0 10 0;
#X connect 10 0 15 0;
#X connect 11 0 4 1;
#X connect 11 0 12 0;
#X connect 13 0 18 0;
#X connect 14 0 4 0;
#X connect 15 0 20 0;
#X connect 17 0 7 0;
#X connect 18 0 3 0;
#X connect 19 0 6 0;
#X connect 20 0 11 0;
#X restore 113 158 pd MarkovPitches;
#X floatatom 224 184 5 0 0 0 - - -;
#X obj 224 216 outlet;
#N canvas 952 521 958 457 MarkovPitches 0;
#X obj 171 32 inlet;
#X obj 244 29 inlet;
#X obj 293 28 r finished;
#X floatatom 245 110 5 0 0 0 - - -;
#X obj 171 149 f;
#X obj 171 178 t f f;
#X obj 122 231 length;
#X obj 122 279 t b f;
#X obj 122 304 random;
#X obj 121 329 + 1;
#X obj 181 316 pack;
#X floatatom 278 342 5 0 0 0 - - -;
#X obj 278 366 outlet;
#X msg 244 59 next;
#X obj 170 93 bng 15 250 50 0 empty empty empty 17 7 0 10 -262144 -1
-1;
#X msg 181 362 nth \$2 \$1;
#X text 308 84 Markov STM stored here;
#X floatatom 122 256 5 0 0 0 - - -;
#X obj 245 84 coll PitchSTM;
#C restore;
#X obj 122 203 coll PitchSTM;
#C restore;
#X obj 181 390 coll PitchSTM;
#C restore;
#X connect 0 0 14 0;
#X connect 1 0 13 0;
#X connect 2 0 13 0;
#X connect 3 0 4 1;
#X connect 4 0 5 0;
#X connect 5 0 19 0;
#X connect 5 1 10 1;
#X connect 6 0 17 0;
#X connect 7 0 8 0;
#X connect 7 1 8 1;
#X connect 8 0 9 0;
#X connect 9 0 10 0;
#X connect 10 0 15 0;
#X connect 11 0 4 1;
#X connect 11 0 12 0;
#X connect 13 0 18 0;
#X connect 14 0 4 0;
#X connect 15 0 20 0;
#X connect 17 0 7 0;
#X connect 18 0 3 0;
#X connect 19 0 6 0;
#X connect 20 0 11 0;
#X restore 224 158 pd MarkovPitches;
#X connect 0 0 2 0;
#X connect 1 0 5 0;
#X connect 2 0 8 0;
#X connect 2 0 11 0;
#X connect 3 0 0 0;
#X connect 4 0 8 1;
#X connect 4 0 11 1;
#X connect 7 0 0 1;
#X connect 8 0 1 0;
#X connect 9 0 10 0;
#X connect 11 0 9 0;
