#N canvas 952 0 958 978 10;
#X declare -lib mrpeach;
#X obj 136 117 import mrpeach;
#X obj 304 125 routeOSC /wek;
#X obj 304 156 routeOSC /outputs;
#X obj 186 238 outlet;
#X obj 231 239 outlet;
#X obj 276 239 outlet;
#X obj 319 239 outlet;
#X obj 364 240 outlet;
#X obj 409 240 outlet;
#X obj 457 240 outlet;
#X obj 502 240 outlet;
#X obj 545 240 outlet;
#X obj 590 241 outlet;
#X obj 637 241 outlet;
#X obj 682 242 outlet;
#X obj 727 242 outlet;
#X obj 770 242 outlet;
#X obj 815 243 outlet;
#X obj 304 187 unpack f f f f f f f f f f f f f f f;
#X obj 301 69 udpreceive 1200;
#X obj 304 96 unpackOSC;
#X connect 1 0 2 0;
#X connect 2 0 18 0;
#X connect 18 0 3 0;
#X connect 18 1 4 0;
#X connect 18 2 5 0;
#X connect 18 3 6 0;
#X connect 18 4 7 0;
#X connect 18 5 8 0;
#X connect 18 6 9 0;
#X connect 18 7 10 0;
#X connect 18 8 11 0;
#X connect 18 9 12 0;
#X connect 18 10 13 0;
#X connect 18 11 14 0;
#X connect 18 12 15 0;
#X connect 18 13 16 0;
#X connect 18 14 17 0;
#X connect 19 0 20 0;
#X connect 20 0 1 0;
#X coords 0 -1 1 1 1000 20 1 500 100;
